<?xml version="1.0" standalone="no"?>
<!DOCTYPE svg PUBLIC "-//W3C//DTD SVG 20010904//EN"
 "http://www.w3.org/TR/2001/REC-SVG-20010904/DTD/svg10.dtd">
<svg version="1.0" xmlns="http://www.w3.org/2000/svg"
 width="800.000000pt" height="800.000000pt" viewBox="0 0 800.000000 800.000000"
 preserveAspectRatio="xMidYMid meet">
<metadata>
Created by potrace 1.14, written by Peter Selinger 2001-2017
</metadata>
<g transform="translate(0.000000,800.000000) scale(0.100000,-0.100000)"
fill="#000000" stroke="none">
<path d="M1377 7244 c-2 -3 -26 -7 -53 -10 -119 -14 -278 -79 -416 -170 -67
-45 -230 -194 -212 -194 5 0 2 -5 -7 -10 -9 -5 -34 -35 -55 -67 -21 -32 -43
-61 -49 -65 -7 -5 -7 -8 0 -8 6 0 5 -3 -1 -8 -18 -11 -97 -189 -110 -244 -1
-5 -2 -9 -4 -10 -2 -4 -7 -27 -15 -73 -4 -22 -9 -43 -11 -46 -17 -28 -25 -311
-11 -424 14 -119 63 -342 79 -362 6 -7 8 -13 5 -13 -9 0 55 -180 104 -295 50
-118 166 -349 229 -455 24 -41 91 -145 149 -230 57 -85 110 -169 117 -185 12
-28 12 -110 1 -165 -3 -14 -11 -61 -17 -105 -7 -44 -14 -87 -15 -96 -5 -25
-16 -92 -19 -114 -2 -11 -7 -45 -11 -75 -4 -30 -9 -64 -12 -75 -2 -11 -6 -36
-9 -55 -2 -19 -11 -73 -19 -118 -8 -46 -14 -87 -13 -90 0 -4 -1 -9 -2 -12 -3
-10 -10 -46 -15 -85 -31 -257 -141 -419 -533 -787 -67 -62 -84 -93 -161 -278
-29 -69 -56 -134 -61 -145 -60 -129 -112 -288 -125 -380 -2 -11 -4 -20 -5 -20
-3 0 -4 -7 -14 -75 -5 -32 -25 -133 -43 -220 -4 -19 -7 -71 -7 -115 0 -65 4
-88 23 -125 41 -77 104 -128 156 -124 47 2 48 3 85 37 54 49 63 78 66 212 3
104 10 183 20 220 2 6 5 19 7 30 17 70 124 315 139 315 4 0 8 5 8 11 0 28 135
173 172 185 10 3 18 9 18 14 0 11 98 48 143 54 37 6 80 14 122 23 17 4 35 8
40 9 102 21 346 99 437 138 119 51 184 5 174 -124 -5 -61 -6 -69 -34 -166 -31
-108 -43 -164 -37 -174 3 -5 2 -11 -3 -14 -13 -8 -6 -156 12 -224 21 -84 59
-159 104 -207 20 -22 66 -74 102 -115 36 -41 79 -91 97 -110 17 -19 41 -46 53
-60 19 -22 86 -99 145 -166 11 -12 38 -43 60 -69 22 -25 60 -67 85 -93 l45
-47 187 1 c205 1 250 12 275 65 29 60 21 100 -31 156 -41 44 -88 65 -160 70
-130 10 -142 18 -283 183 -105 124 -132 162 -139 192 -7 34 -7 119 0 157 8 41
56 141 68 141 4 0 8 6 8 14 0 8 3 16 8 18 4 2 35 39 70 83 35 44 103 121 151
170 48 50 108 120 134 157 50 69 122 214 131 260 10 60 19 65 103 68 202 5
618 25 618 29 0 1 25 4 55 6 30 3 66 7 80 10 97 20 225 25 315 12 104 -14 110
-15 125 -21 8 -3 26 -7 40 -10 61 -10 220 -69 237 -88 15 -17 18 -36 16 -122
-3 -195 -38 -467 -75 -586 -6 -19 -12 -44 -13 -55 -1 -11 -5 -29 -9 -40 -19
-50 -26 -72 -30 -95 -2 -14 -7 -43 -11 -65 -4 -22 -9 -48 -11 -58 -17 -94 -26
-465 -11 -474 4 -2 5 -8 2 -13 -10 -16 65 -70 98 -70 242 -4 317 -1 345 14 77
40 57 174 -35 232 -57 36 -77 54 -92 82 -12 23 -13 117 -2 137 3 6 6 15 7 21
2 15 36 87 44 94 3 3 11 16 17 30 7 14 26 48 43 75 16 28 33 56 37 64 3 8 35
64 70 125 35 60 93 170 128 243 100 206 190 325 274 360 28 12 136 22 284 27
15 1 27 3 27 6 0 3 10 5 23 6 12 0 50 7 85 14 76 17 121 7 208 -44 85 -51 224
-190 224 -225 0 -5 6 -14 13 -18 7 -4 20 -19 28 -33 28 -43 134 -144 238 -226
13 -11 38 -31 55 -45 30 -25 341 -279 420 -343 21 -17 43 -36 50 -41 6 -6 47
-40 91 -75 44 -36 89 -73 100 -82 53 -45 65 -54 85 -68 12 -8 28 -20 34 -26
19 -18 108 -78 176 -119 36 -21 67 -43 68 -47 2 -4 8 -8 14 -8 5 0 30 -18 56
-39 76 -64 95 -68 299 -69 204 0 230 6 270 67 34 51 15 124 -44 167 -41 30
-64 36 -167 39 -140 5 -143 6 -344 205 -165 162 -176 175 -370 425 -5 6 -36
53 -70 105 -35 52 -68 103 -74 112 -43 63 -178 321 -184 351 -2 12 -7 36 -10
52 -3 17 -7 127 -9 245 -2 118 -7 328 -11 465 -9 359 -8 387 15 441 58 130
280 343 403 386 15 6 28 15 28 21 0 6 3 8 6 4 3 -3 25 1 47 10 23 8 49 16 57
17 75 15 105 19 173 21 131 5 130 5 230 195 62 120 72 155 57 195 -10 26 -69
106 -145 196 -16 20 -40 49 -53 64 -24 30 -53 90 -46 98 8 8 -34 94 -59 118
-76 75 -140 113 -265 159 -87 31 -87 32 -97 161 -3 37 -8 77 -11 90 -2 13 -7
51 -10 84 -4 33 -10 64 -14 68 -4 5 -19 -2 -33 -15 -61 -57 -274 -257 -322
-304 -37 -36 -65 -54 -92 -59 -94 -17 -209 -70 -315 -143 -57 -40 -73 -53
-213 -190 -66 -64 -134 -124 -150 -132 -17 -8 -32 -18 -35 -22 -12 -16 -172
-72 -255 -89 -72 -15 -120 -18 -240 -15 -160 5 -176 7 -300 38 -44 11 -90 21
-102 23 -12 2 -26 6 -31 9 -5 3 -27 8 -48 11 -22 3 -50 10 -64 15 -14 4 -41
11 -60 14 -19 3 -57 11 -85 17 -27 5 -61 12 -75 15 -14 2 -36 7 -50 10 -14 3
-38 8 -55 11 -16 2 -37 6 -45 9 -8 3 -33 8 -55 10 -22 2 -51 7 -65 10 -27 6
-44 9 -100 18 -19 3 -46 8 -60 11 -14 3 -45 7 -70 10 -25 3 -56 7 -70 10 -14
3 -43 8 -65 10 -22 3 -65 7 -95 11 -59 6 -95 12 -95 14 0 0 -27 3 -60 6 -33 3
-80 7 -105 10 -25 2 -72 6 -105 9 -33 3 -82 7 -110 9 -290 27 -890 27 -1210 1
-116 -9 -296 -30 -346 -40 -93 -19 -125 -15 -187 23 -118 72 -236 183 -324
303 -50 69 -69 99 -121 189 -52 93 -139 335 -153 430 -3 19 -7 41 -9 48 -25
71 -24 404 0 522 3 14 7 36 10 50 3 14 9 40 14 58 5 18 10 33 10 35 0 1 4 15
10 30 6 16 11 32 11 37 0 17 59 131 86 169 97 132 228 179 409 147 48 -9 191
-76 221 -104 25 -23 78 -52 106 -57 31 -6 72 28 91 75 17 45 17 156 -1 202
-51 126 -222 257 -384 294 -13 3 -48 7 -78 10 -30 2 -63 6 -72 8 -9 2 -19 2
-21 0z"/>
</g>
</svg>
