<?xml version="1.0" encoding="UTF-8"?><svg id="Layer_1" xmlns="http://www.w3.org/2000/svg" viewBox="0 0 200 166.51"><defs><style>.cls-1{fill:#3F2E60;}</style></defs><path class="cls-1" d="M173.56,46.01l1.23,9.87s8.55,1.99,10.01,6.94c.04,.15,.06,.3,.07,.46,.02,.38,.15,1.25,.81,2.08l3.91,4.86,.96,1.26c.73,.96,.84,2.25,.28,3.32l-2.98,5.7c-.51,.98-1.53,1.6-2.64,1.6h-1.19c-4.43,0-8.71,1.58-12.09,4.45-3.21,2.73-6.51,6.27-6.51,9.33l.58,25.82c.02,1.05,.27,2.08,.72,3.03,2.11,4.41,9.08,17.63,21.24,27.71,.94,.78,2.13,1.22,3.35,1.22h2.59c1.78,0,3.41,1.07,4.03,2.74,.33,.89,.34,1.89-.46,2.83-.67,.8-1.69,1.22-2.73,1.22h-7.3c-1.28,0-2.51-.46-3.48-1.29-.9-.77-2.12-1.73-3.36-2.42-2.27-1.26-4.4-2.77-6.41-4.41l-21.53-17.6c-2.2-1.8-4.09-3.96-5.61-6.36-1.01-1.6-2.92-3.65-6.53-5.41-1.12-.54-2.4-.61-3.58-.24-1.27,.4-3.71,.84-8.38,.91-1.31,.02-2.56,.49-3.55,1.35-1.43,1.23-3.38,3.57-5.3,7.94-.67,1.53-1.44,3.02-2.27,4.47l-5.54,9.7c-.77,1.34-1.17,2.86-1.17,4.4h0c0,1.2,.68,2.29,1.75,2.83,1.5,.76,3.36,2.24,2.86,4.85-.21,1.1-1.18,1.89-2.31,1.89h-7.21c-1.51,0-2.82-1.15-2.9-2.66,0-.07,0-.14,0-.22v-5.38c0-3.72,.54-7.43,1.63-10.99,1.12-3.67,2.44-9.82,2.66-18.82,.02-.87-.5-1.66-1.31-1.99-2.82-1.13-9.59-3.44-15.48-2.38-2.85,.51-5.74,.82-8.64,.94l-14.02,.57s-1.04,6.22-6.75,11.69c-1.3,1.24-2.52,2.56-3.62,3.97l-2.7,3.48c-1.12,1.45-1.73,3.23-1.73,5.06v1.25c0,1.09,.39,2.14,1.1,2.96l5.06,5.9c.8,.93,1.94,1.48,3.16,1.53l1.53,.06c1.74,.07,3.39,.92,4.37,2.36,.64,.94,.98,2.08,.33,3.27-.56,1.03-1.68,1.64-2.85,1.64h-8.44c-.35,0-.69-.15-.93-.42l-14.64-16.65s-4.73-5.14-1.23-15.22c0,0,3.32-9.38-3.37-6.99-.27,.09-.52,.21-.78,.32-.89,.41-4.27,1.83-10.75,3.37-1.23,.29-2.48,.5-3.74,.68-2.34,.33-8.39,2.38-11.98,14.67-.41,1.41-.62,2.87-.62,4.34v3.35c0,1.57-.71,3.07-1.97,4-1.14,.84-2.7,1.19-4.44-.6-1.32-1.36-2.02-3.21-2.02-5.1H.74c0-.51,.05-1.01,.14-1.51l1.59-8.63c.49-2.65,1.26-5.23,2.31-7.71l4.06-9.64c.6-1.41,1.53-2.66,2.71-3.63,2.66-2.17,7.71-6.69,10.73-11.95,1.14-1.99,1.87-4.18,2.23-6.44l3.65-23.11c.21-1.35-.12-2.74-.93-3.84C21.28,64.5-2.57,28.97,20.28,8.48c0,0,14.52-13.09,26.15-1.43,1.97,1.97,2.8,4.86,2.04,7.54-.57,2.03-1.91,3.45-4.95,.99-1.03-.83-2.16-1.53-3.39-2.01-4.3-1.71-12.78-3.05-15.75,11.12-1.39,6.63-.99,13.52,1.13,19.95,2.09,6.35,6.21,14.1,14.3,19.05,.75,.46,1.65,.63,2.51,.47,6.41-1.16,36.6-5.54,80.76,5.18,0,0,16.86,5.55,26.11-5.14,0,0,6.37-7.61,13.98-8.43l10.38-9.77Z"/></svg>
